<svg xmlns="http://www.w3.org/2000/svg" width="240" height="92" viewBox="0 0 240 92">
  <g id="Group_68" data-name="Group 68" transform="translate(-77 -27)">
    <text id="URBOpro" transform="translate(197 83)" fill="#090909" font-size="60" font-family="Exotic350BT-DemiBold, Exotc350 DmBd BT" font-weight="300"><tspan x="-119.077" y="0">URBOpro</tspan></text>
    <g id="Group_67" data-name="Group 67">
      <text id="Pastatu_projektavimas" data-name="Pastatu projektavimas" transform="translate(196 112)" fill="#060606" font-size="28" font-family="Exotic350BT-DemiBold, Exotc350 DmBd BT" font-weight="300"><tspan x="-117.66" y="0">Pastatu projektavimas</tspan></text>
      <path id="Subtraction_11" data-name="Subtraction 11" d="M-2002.548,37.32a1.5,1.5,0,0,1-1.013-.332,1.151,1.151,0,0,1-.382-.913,2.653,2.653,0,0,1,1.074-1.88l-.086,0h-.141a4.169,4.169,0,0,1-3.243-1.2h6.586a3.739,3.739,0,0,1-1.962,1.06c-.784.748-1.182,1.351-1.182,1.791a.507.507,0,0,0,.564.581,1.024,1.024,0,0,0,.464-.108v.888A1.752,1.752,0,0,1-2002.548,37.32Z" transform="translate(2156 78)" fill="#060606"/>
    </g>
  </g>
</svg>
